<svg id="Capa_1" data-name="Capa 1" xmlns="http://www.w3.org/2000/svg" viewBox="0 0 16 16" width="16" height="16"><defs><style>.cls-1{fill:none;stroke:#222;stroke-linecap:round;stroke-miterlimit:10;stroke-width:0.77px;}</style></defs><title>Mesa de trabajo 1</title><path class="cls-1" d="M4.74,14.92c3.85-.34,3.71-3,3.71-3V3.8C8.26.9,5,1.08,5,1.08V6.29a3.42,3.42,0,0,0,3.45,3.1S11.89,9.2,12,6.44V1.25a11.89,11.89,0,0,0-2.62.13A8.9,8.9,0,0,0,5.15,4.06l-.07.07"/><path class="cls-1" d="M4,9.34v2.17a.4.4,0,0,0,0,.15,2.38,2.38,0,0,0,2.48,1.42V10.87a.77.77,0,0,0,0-.15C6.39,10.41,5.9,9.33,4,9.34Z"/></svg>